<svg width="128" height="128" viewBox="0 0 128 128" fill="none" xmlns="http://www.w3.org/2000/svg">
  <rect width="128" height="128" rx="16" fill="#1B1B1B"/>
  <path d="M64 32C45.6 32 32 45.6 32 64C32 82.4 45.6 96 64 96C82.4 96 96 82.4 96 64C96 45.6 82.4 32 64 32ZM64 88C50.1 88 40 77.9 40 64C40 50.1 50.1 40 64 40C77.9 40 88 50.1 88 64C88 77.9 77.9 88 64 88Z" fill="#00FFCC"/>
  <path d="M64 48C54.6 48 48 54.6 48 64C48 73.4 54.6 80 64 80C73.4 80 80 73.4 80 64C80 54.6 73.4 48 64 48ZM64 72C59.1 72 56 68.9 56 64C56 59.1 59.1 56 64 56C68.9 56 72 59.1 72 64C72 68.9 68.9 72 64 72Z" fill="#00FFCC"/>
  <circle cx="64" cy="64" r="4" fill="#00FFCC"/>
</svg>